<?xml version="1.0" encoding="utf-8"?>
<!-- Generator: Adobe Illustrator 16.0.0, SVG Export Plug-In . SVG Version: 6.00 Build 0)  -->
<!DOCTYPE svg PUBLIC "-//W3C//DTD SVG 1.1//EN" "http://www.w3.org/Graphics/SVG/1.1/DTD/svg11.dtd">
<svg version="1.1" id="레이어_1" xmlns="http://www.w3.org/2000/svg" xmlns:xlink="http://www.w3.org/1999/xlink" x="0px"
	 y="0px" width="680px" height="367px" viewBox="0 0 680 367" enable-background="new 0 0 680 367" xml:space="preserve">
<path fill="#FFFFFF" d="M333.172,68.078c2.573,5.372,9.585,6.254,13.333,2.036c0.325-0.366,0.632-1.196,0.827-1.16
	c3.055,0.564,6.756-0.717,9.114,1.105c3.984,3.08,8.467,5.111,13.058,6.101c5.58,1.203,6.371,4.779,6.542,9.123
	c0.187,4.741,2.072,8.574,4.881,12.335c3.442,4.607,5.289,10.124,7.199,15.521c0.618,1.743-0.299,3.515-0.679,5.207
	c-0.746,3.316-0.842,6.542-0.067,9.862c0.254,1.087,0.994,2.73-1.363,3.015c-0.995,0.119-1.601,1.279-1.918,2.296
	c-1.66,5.325-5.585,9.132-8.893,13.358c-1.204,1.539-2.479,3.058-3.442,4.746c-2.93,5.136-8.488,5.459-13.174,7.365
	c-4.608,1.875-9.558,2.854-13.979,5.222c-2.416,1.294-3.837,3.713-5.983,5.391c-4.352,3.404-9.612,4.181-14.537,5.961
	c-0.972,0.352-1.457,0.235-1.703-0.678c-1.372-5.111-4.935-8.228-9.584-10.165c-4.941-2.058-8.987-5.956-14.654-6.627
	c-2.097-0.249-4.163-0.3-6.231-0.327c-6.774-0.089-9.723-2.159-11.914-8.594c-0.526-1.547-1.594-2.967-2.923-3.562
	c-4.102-1.838-3.954-5.465-3.167-8.538c1.503-5.87,0.272-11.287-1.103-16.872c-0.751-3.049-0.633-6.282-0.002-9.385
	c0.514-2.523,0.676-5.106,0.092-7.499c-0.948-3.878-4.658-5.325-9.331-3.582c-2.183,0.815-4.434,0.617-6.605,1.31
	c-1.884,0.6-1.506-1.59-2.005-2.54c-1.068-2.032,0.566-3.724,1.91-3.99c5.072-1.004,9.034-5.113,14.899-4.357
	c2.904,0.375,7.195-0.621,9.281-2.21c2.556-1.946,5.418-3.46,7.882-5.479c1.718-1.408,3.405-2.386,5.573-2.185
	c3.769,0.35,6.32-0.949,7.951-4.549c1.058-2.337,3.278-2.958,5.743-1.808c4.257,1.986,8.515,3.198,12.83,0.141
	c0.158-0.112,0.418-0.173,0.607-0.136C326.844,74.934,330.048,71.789,333.172,68.078"/>
<path fill="#FFFFFF" d="M337.977,175.853c2.266-2.084,4.52-2.126,7.272-1.711c6.73,1.014,13.182-0.779,19.021-3.922
	c4.91-2.643,9.881-3.949,15.363-3.592c4.438,0.289,7.918-0.969,10.281-5.14c2.008-3.541,5.849-4.264,9.467-3.947
	c1.449,0.127,2.727,2.284,4.067,3.533c2.841,2.647,5.591,5.398,8.529,7.93c2.85,2.457,6.536,2.605,10.034,3.43
	c5.404,1.273,11.039-0.605,16.357,1.727c3.498,1.534,6.187,4.273,9.682,5.817c1.107,0.489,2.313,0.67,3.421,1.168
	c4.059,1.826,4.934,5.489,5.922,9.106c0.921,3.368,1.709,6.668,4.113,9.475c1.364,1.592,1.63,3.932,1.666,6.143
	c0.047,2.828,1.054,4.768,4.271,5.286c2.676,0.431,4.855,1.627,5.555,4.852c0.655,3.023,3.59,4.512,5.816,6.321
	c0.869,0.706,0.894,1.277,0.818,2.051c-0.093,0.958-0.929,0.604-1.485,0.658c-5.666,0.55-9.462,4.065-12.357,8.442
	c-1.433,2.164-3.103,3.494-5.384,4.238c-2.291,0.749-3.867,2.072-4.968,4.281c-0.52,1.045-1.064,2.344-3.441,1.171
	c-2.896-1.431-6.541-0.386-9.616,1.135c-5.956,2.946-12.195,4.668-18.873,4.919c-2.774,0.104-5.532,0.694-8.293,1.1
	c-1.699,0.249-3.124,0.086-4.653-1.058c-3.028-2.264-5.328-1.88-8.254,0.667c-1.647,1.433-3.906,1.236-5.846,1.645
	c-3.282,0.69-4.804,2.713-5.826,5.521c-0.174,0.479-0.452,0.928-0.563,1.418c-0.343,1.529-1.686,1.879-2.823,2.015
	c-1.667,0.2-0.899-1.323-1.002-2.071c-0.684-5.016-1.523-10.029-1.815-15.072c-0.225-3.854-1.829-6.811-4.624-9.102
	c-1.2-0.985-2.402-2.129-3.771-2.843c-4.684-2.445-6.401-6.176-5.696-11.327c0.806-5.878-0.99-10.814-5.77-14.545
	c-1.357-1.06-1.996-2.662-2.423-4.229c-1.58-5.804-2.013-6.337-8.101-6.71c-1.701-0.104-2.388-0.702-2.75-2.188
	C349.467,184.909,344.63,179.754,337.977,175.853"/>
<path fill="#FFFFFF" d="M281.04,183.228c5.095-0.286,9.43,0.184,13.858,2.05c4.142,1.745,8.535,0.241,12.327-2.293
	c3.146-2.104,6.649-2.62,10.343-2.404c0.948,0.055,1.914,0.324,1.881,1.271c-0.101,2.892,0.767,5.87-0.715,8.657
	c-1.629,3.063-1.823,6.036,0.317,9.047c1.151,1.618,0.44,3.357-0.352,4.999c-1.612,3.346-3.23,6.719-1.699,10.56
	c0.485,1.216,0.826,2.754,1.754,3.482c3.98,3.122,3.648,7.026,2.842,11.347c-0.476,2.555-0.645,5.384-0.053,7.876
	c1.132,4.757,0.052,9.571,1.027,14.343c0.626,3.063,1.121,5.959,3.725,7.844c2.893,2.092,2.172,4.986,1.996,7.723
	c-0.054,0.847-0.528,1.906-2.042,1.811c-5.412-0.344-9.519,2.449-13.045,6.084c-1.491,1.537-3.32,2.088-4.799,1.391
	c-5.188-2.447-9.496-0.391-13.999,1.848c-4.005,1.99-6.52,0.757-7.863-3.414c-1.775-5.519-6.234-7.437-11.606-4.882
	c-2.373,1.129-4.662,2.44-6.942,3.753c-1.172,0.674-2.218,0.813-3.235-0.174c-1.063-1.031-2.252-1.977-3.121-3.155
	c-4.295-5.822-11.908-4.717-16.477-1.856c-2.847,1.782-5.71,3.661-8.81,4.877c-2.705,1.062-5.729,1.481-8.653,1.752
	c-1.903,0.176-2.988-1.93-1.978-3.608c1.601-2.661,1.425-5.575,0.672-8.187c-0.684-2.368-0.975-4.651-0.914-7.032
	c0.075-2.934-0.323-5.739-1.222-8.566c-1.562-4.913,1.379-9.34,1.96-14.04c0.336-2.721,1.094-5.405,1.842-8.055
	c0.543-1.926,1.482-3.087,3.561-1.181c1.423,1.305,3.191,2.275,5.162,2.465c3.295,0.316,6.286,0.141,8.672-2.973
	c2.332-3.042,5.495-5.346,8.639-7.641c2.937-2.143,4.303-5.5,4.386-9.16c0.07-3.087,0.716-5.601,3.762-7.202
	c2.632-1.386,2.597-4.196,1.726-6.387c-1.406-3.53,0.424-5.342,2.734-7.248C271.06,183.349,276.078,182.404,281.04,183.228"/>
<path fill="#FFFFFF" d="M250.661,98.968c0.678,6.375,2.597,7.645,9.16,6.083c2.089-0.498,4.225-0.688,6.275-1.492
	c1.906-0.748,2.461,0.744,2.569,2.288c0.183,2.62-0.183,5.198-0.592,7.79c-0.9,5.709,1.794,10.997,2.16,16.589
	c0.151,2.291-0.035,4.612-0.471,6.656c-1.094,5.128-0.835,9.378,4.073,12.393c1.392,0.855,1.754,2.54,2.429,3.908
	c2.632,5.338,6.641,8.333,12.8,8.394c7.606,0.076,14.283,2.963,20.678,6.935c6.672,4.144,6.788,3.958,7.801,7.667
	c-6.644-0.614-12.233,2.066-17.695,5.285c-1.893,1.115-3.261-1.137-5.104-1.371c-1.562-0.198-3.151-0.785-4.825-0.778
	c-5.083,0.021-10.168,0.08-15.249-0.011c-6.486-0.116-11.446,2.52-14.78,8.04c-1.179,1.954-3.293,1.889-4.825,1.992
	c-5.263,0.356-10.592,0.452-15.841,0.002c-2.444-0.209-4.896-1.326-7.425-1.797c-4.712-0.876-9.654-0.51-14.07-3.072
	c-3.404-1.975-7.088-3.475-10.661-5.154c-0.856-0.403-0.979-1.243-1.294-1.944c-1.6-3.562-3.714-6.635-7.154-8.741
	c-1.796-1.1-2.38-3.073-2.379-5.125c0.002-4.186-1.495-7.341-5.765-8.666c-1.378-0.428-2.051-1.25-1.888-2.776
	c0.404-3.774-0.341-7.091-3.053-10.082c-2.568-2.833-0.728-6.887-2.016-10.179c-1.634-4.176-0.514-5.996,4.122-7.523
	c4.254-1.401,6.612-6.076,8.481-10.291c0.572-1.291,0.124-2.866-0.74-4.622c4.279,0.484,8.211-0.424,12.192,0.632
	c2.115,0.562,4.032-0.352,6.094-1.552c4.991-2.903,9.318-7.609,16.022-6.653c2.405,0.342,4.478-0.978,5.867-2.905
	c1.192-1.65,3.183-2.131,4.515-3.563c0.494-0.531,1.309,0.214,1.926,0.735C244.483,98.161,247.061,100.122,250.661,98.968"/>
<path fill="#FFFFFF" d="M553.877,82.57c1.782,0.021,2.918,0.781,2.299,2.773c-0.299,0.963-0.717,2.153-0.751,2.911
	c-0.309,6.836-5.834,7.484-10.471,9.139c-2.558,0.914-4.372,2.799-6.47,4.338c-4.668,3.425-10.025,5.556-15.358,7.617
	c-5.538,2.141-10.864,4.639-15.927,7.718c-4.662,2.835-9.853,4.439-14.977,6.084c-4.571,1.468-8.832,3.562-13.07,5.682
	c-6.338,3.17-12.815,5.844-19.927,6.371c-2.719,0.201-5.264-0.843-7.613-2.561c-7.673-5.609-7.672-8.121-6.843-16.332
	c0.85-8.408,4.228-16.215,5.925-24.43c1.168-5.654-0.394-10.373-4.135-14.534c-1.131-1.257-2.304-2.502-3.6-3.581
	c-1.984-1.653-3.124-3.498-2.726-6.237c0.299-2.049-1.011-3.444-2.692-4.433c-0.884-0.52-1.829-0.934-2.745-1.401
	c-4.021-2.049-5.386-6.367-3.286-10.329c0.703-1.328,2.384-1.597,3.211-1.452c4.435,0.778,7.751-1.809,11.373-3.388
	c1.358-0.593,2.655-0.699,3.958-0.477c5.304,0.899,10.565,0.838,15.878-0.005c1.308-0.207,2.079-0.785,2.887-1.606
	c2.418-2.462,7.47-3.248,10.241-1.221c2.801,2.048,6.466,2.507,8.901,5.236c0.883,0.989,2.525,1.147,3.79,0.357
	c2.197-1.374,4.816-1.514,7.104-2.75c2.949-1.593,6.615,0.584,6.108,3.884c-0.869,5.65,2.738,8.255,6.112,11.396
	c2.697,2.508,5.763,4.307,9.143,5.498c2.09,0.736,2.688,2.968,4.7,3.74c2.629,1.009,4.898,1.449,6.939-1.118
	c1.154-1.452,2.928-0.517,4.399-0.59c3.432-0.169,6.69,0.37,9.737,2.28c2.421,1.517,3.813,2.74,2.471,6.019
	C547.229,80.187,550.098,82.829,553.877,82.57"/>
<path fill="#FFFFFF" d="M426.905,52.315c-2.007,6.974-0.086,11.179,6.465,13.883c1.771,0.731,2.65,1.545,2.449,3.369
	c-0.391,3.538,1.531,5.862,3.994,7.972c3.952,3.388,7.625,7.099,6.738,12.854c-0.54,3.503-1.824,6.901-2.876,10.316
	c-2.554,8.284-4.048,16.734-3.304,25.401c0.236,2.747,2.021,5.114,4.591,7.396c-5.018-0.099-9.366,0.765-13.504,2.605
	c-3.134,1.393-5.873,3.141-7.903,6.098c-2.147,3.13-5.217,4.924-9.275,4.761c-3.443-0.137-6.619,0.993-9.823,2.262
	c-3.751,1.486-6.89,4.304-11.404,4.314c-2.466,0.006-4.775,1.92-6.267,4.441c-1.711,2.891-4.251,4.512-7.934,4.237
	c-6.232-0.464-12.054,1.168-17.506,4.168c-4.806,2.645-9.972,3.569-15.708,3.373c3.703-3.526,8.391-4.052,12.574-5.669
	c3.708-1.433,7.583-2.457,11.228-4.025c2.93-1.26,4.78-3.893,6.648-6.429c3.303-4.482,6.886-8.765,10.036-13.349
	c1.824-2.655,2.879-5.699,5.745-7.755c1.593-1.143,1.216-3.726,0.156-5.452c-1.307-2.127-1.213-4.118-0.693-6.434
	c1.124-5.014,1.452-10.087-0.888-14.907c-2.366-4.874-4.383-9.993-8.045-14.087c-2.761-3.086-1.521-6.927-2.404-10.356
	c-1.192-4.634-0.508-7.066-7.528-8.779c-2.508-0.612-4.875-1.941-7.457-2.591c-1.078-0.271-1.596-1.179-1.005-2.605
	c1.997-4.821,1.926-4.837,7.193-4.855c2.877-0.011,5.557-0.05,8.386-1.561c2.583-1.379,5.991-0.248,8.74,0.88
	c3.524,1.446,4.639,1.12,4.189-2.714c-0.441-3.771,3.538-4.71,4.096-7.663c1.545,1.995,4.085-0.006,5.816,1.481
	c1.558,1.34,3.431,2.243,4.977,3.664c3.474,3.191,8.25,1.644,9.345-2.934c0.242-1.01,0.116-2.417,1.734-1.316
	C421.202,54.159,423.891,52.96,426.905,52.315"/>
<path fill="#FFFFFF" d="M516.181,215.675c-1.777,2.384-2.965,5.632-4.901,6.165c-2.545,0.7-4.91,2.562-7.856,2.072
	c-1.749-0.291-4.104-0.801-5.278,0.047c-3.25,2.341-6.907,1.719-10.381,2.302c-1.935,0.325-3.957,0.377-3.682-2.694
	c0.078-0.854-0.238-1.908-0.734-2.619c-2.817-4.033-6.705-7.249-8.757-11.918c-0.419-0.952-2.26-1.763-3.787-1.75
	c-2.964,0.02-3.858-2.046-3.739-4.314c0.138-2.598-0.841-4.745-2.103-6.672c-2.362-3.609-3.436-7.563-4.432-11.675
	c-0.934-3.859-3.618-6.554-7.458-7.811c-2.854-0.933-5.378-2.368-7.748-4.174c-2.712-2.065-5.511-3.879-9.217-3.494
	c-5.361,0.558-10.526-1.438-15.892-1.347c-2.021,0.034-3.796-1.597-5.354-2.851c-3.315-2.671-6.404-5.624-9.556-8.495
	c-1.147-1.044-1.608-1.641,0.444-2.633c3.619-1.749,7.209-2.606,11.24-2.506c4.218,0.104,7.648-2.111,9.863-5.542
	c2.96-4.586,7.242-6.526,12.321-7.008c1.817-0.172,3.159-1.34,5.027-1.444c3.314-0.185,6.739,0.114,9.401,1.568
	c3.464,1.892,6.654,0.635,9.7,0.203c6.374-0.904,12.318-3.263,18.12-6.411c3.903-2.118,8.214-3.991,12.604-5.321
	c0.196-0.059,0.409-0.069,0.615-0.097c3.518-0.499,10.28,7.47,9.196,10.88c-1.908,6.006-3.921,11.978-5.778,17.999
	c-1.144,3.707-2.176,7.455-3.075,11.228c-0.694,2.911,1.217,6.408,5.016,8.06c4.719,2.052,8.493,4.847,11.028,9.399
	c0.794,1.426,2.18,2.534,3.715,3.465c3.367,2.038,4.794,5.549,6.122,9.058c0.359,0.951-0.157,1.521-0.692,2.22
	c-2.372,3.099-5.18,5.782-7.952,8.498c-0.916,0.896-1.708,1.873-1.995,3.087C509.385,214.705,510.161,215.316,516.181,215.675"/>
<path fill="#FFFFFF" d="M188.681,278.75c-2.257-3.738-5.356-5.286-9.332-5.508c-1.759-0.099-2.984-1.06-2.868-3.292
	c0.205-3.965-0.168-7.959,0.668-11.895c0.108-0.51,0.16-0.962,0.492-1.433c2.126-3.006,4.139-6.069,3.343-10.057
	c-0.139-0.698,0.389-1.113,0.722-1.646c2.875-4.597,2.73-8.193-1.05-11.995c-1.295-1.302-1.774-2.506-1.549-4.019
	c0.576-3.858-1.431-6.218-4.466-7.899c-1.622-0.897-0.949-1.727-0.057-2.263c4.068-2.449,5.727-5.978,5.117-10.629
	c-0.203-1.549,0.354-1.928,1.983-2.244c4.61-0.896,9.106-1.744,13.832-0.592c3.843,0.938,6.715-1.837,6.984-6.972
	c0.156-2.97,1.092-3.805,4.083-3.85c4.856-0.071,9.626,0.868,14.463,0.752c2.246-0.054,4.05-0.577,5.763-2.376
	c1.661-1.744,4.254-1.037,6.366-0.39c6.647,2.037,13.372,2.195,20.18,1.204c0.402-0.059,0.836-0.412,1.173-0.321
	c1.645,0.444,3.805-1.203,4.964,1.267c1.215,2.591-1.547,2.487-2.457,3.558c-1.322,1.557-2.464,2.972-2.368,5.195
	c0.289,6.656-3.759,10.697-8.8,14.05c-1.329,0.883-2.391,1.938-3.273,3.272c-2.029,3.07-4.087,3.526-7.036,1.377
	c-1.816-1.323-3.571-2.101-5.918-2.177c-3.059-0.099-4.753,1.289-5.427,3.916c-1.804,7.037-3.671,14.076-4.998,21.21
	c-0.659,3.544,1.278,7.045,1.99,10.552c0.803,3.954-0.434,8.091,1.552,11.931c0.677,1.311-4.301,6.124-5.828,5.653
	c-2.616-0.806-5.216-0.563-7.764-0.242c-1.317,0.166-0.812-0.552-0.834-0.914c-0.122-1.978-1.168-2.373-3.054-2.547
	C197.678,268.727,192.371,272.021,188.681,278.75"/>
<path fill="#FFFFFF" d="M365.881,222.322c-2.079,7.593,4.521,11.289,10.017,15.24c2.761,1.985,4.325,4.511,4.47,7.305
	c0.271,5.219,0.679,10.401,1.47,15.555c0.285,1.854-0.587,2.942-2.01,3.678c-1.257,0.649-2.621,1.423-2.66,2.795
	c-0.126,4.342-3.878,4.393-6.483,5.563c-2.558,1.149-5.231,1.483-7.087-1.704c-1.143-1.961-3.64-2.061-5.504-2.226
	c-4.133-0.364-8.704-1.746-11.897,2.588c-0.532,0.724-1.259,0.966-2.19,0.945c-2.752-0.063-5.51,0.057-8.259-0.045
	c-2.765-0.103-3.43-1.38-3.063-4.103c0.581-4.311,0.625-8.664-3.309-11.705c-2.9-2.242-2.58-5.476-2.824-8.483
	c-0.582-7.194-1.293-14.403-0.035-21.605c0.843-4.823-1.78-8.331-4.623-11.65c-1.139-1.332-1.241-2.302-0.539-3.893
	c1.229-2.784,2.003-5.766,3.127-8.602c0.443-1.119-0.258-1.85-0.56-2.632c-1.008-2.611-2.474-4.898-0.691-7.981
	c1.347-2.331,0.867-5.316,0.7-8.016c-0.108-1.753,0.68-2.434,2.186-2.742c10.033-2.06,16.114,1.342,20.119,11.219
	c0.53,1.31,1.108,2.522,1.415,3.98c0.469,2.229,2.515,3.228,4.896,3.217c2.745-0.013,4.684,0.445,5.367,3.967
	c0.522,2.687,2.19,5.2,4.622,7.328C365.574,212.973,366.196,213.16,365.881,222.322"/>
<path fill="#FFFFFF" d="M501.035,125.104c5.233-1.551,9.324-4.689,13.825-6.982c5.479-2.792,11.274-4.726,16.812-7.313
	c4.359-2.037,8.702-3.956,12.244-7.373c3.436-3.315,8.218-2.169,11.457,2.469c1.353,1.936,2.604,3.932,5.033,4.894
	c2.224,0.881,3.963,0.608,5.825-0.869c0.96-0.761,2.256-2.286,3.563-1.201c1.292,1.073,0.985,5.581-0.042,6.33
	c-0.335,0.243-0.632,0.556-0.995,0.739c-4.862,2.447-7.439,6.043-6.517,11.785c0.34,2.113,0.824,4.752-2.635,5.293
	c-0.527,0.083-1.267,0.861-1.099,1.743c0.763,4.017-2.111,6.997-3.074,10.526c-0.923,3.381-1.868,6.835-3.974,9.847
	c-1.234,1.765-0.962,4.034-0.133,5.965c0.672,1.566,0.445,2.385-1.069,3.16c-1.477,0.755-3.016,1.255-4.598,1.627
	c-6.822,1.608-10.218,7.203-13.748,12.318c-2.785,4.035-3.772,8.961-3.91,13.93c-0.038,1.368-0.898,1.993-1.925,2.579
	c-0.833,0.477-1.688,0.615-1.832-0.535c-0.565-4.516-3.336-7.457-6.926-9.749c-1.354-0.865-2.447-1.799-3.194-3.233
	c-2.317-4.454-6.264-7.091-10.604-9.244c-4.328-2.147-4.57-2.648-3.257-6.978c2.161-7.129,4.038-14.334,6.695-21.322
	C510.69,133.693,508.127,131.113,501.035,125.104"/>
<path fill="#FFFFFF" d="M107.638,226.34c2.813,0.435,4.84-1.368,7.264-1.286c4.709,0.161,8.834,1.8,12.742,4.465
	c3.264,2.225,6.303,4.354,8.488,7.876c1.453,2.341,4.795,2.936,7.5,2.724c3.177-0.249,3.455-3.447,3.524-5.737
	c0.094-3.112,2.053-4.476,4.235-5.29c5.401-2.017,10.937-3.683,16.459-5.356c2.439-0.739,6.929,2.218,6.676,4.604
	c-0.433,4.095,1.708,6.912,3.983,9.737c0.722,0.897,1.27,1.351,0.146,2.424c-0.761,0.726-1.555,2.095-1.386,2.998
	c0.796,4.245-1.796,7.229-3.434,10.617c-1.958,4.05-1.849,8.452-1.764,12.821c0.029,1.48,0.16,2.982-0.027,4.439
	c-0.45,3.521,1.094,4.83,5.016,5.731c0.505,0.115,1.117-0.088,1.561,0.114c1.665,0.758,3.766,1.238,4.797,2.539
	c1.444,1.823-1.149,2.923-1.877,4.343c-1.992,3.883-2.491,8.172-3.699,12.261c-0.27,0.912,0.112,1.648-1.455,1.154
	c-2.999-0.942-5.282,0.971-7.661,2.431c-0.539,0.331-0.813,1.652-1.944,0.783c-0.961-0.738-1.454-1.771-0.985-2.751
	c1.234-2.579,0.07-3.654-2.056-5.081c-5.877-3.945-10.809-8.872-13.231-15.76c-0.987-2.807-2.5-4.808-5.268-6.306
	c-4.156-2.248-7.881-4.795-13.068-4.706c-3.655,0.063-5.335-4.342-8.399-5.988c-6.86-3.688-8.678-11.572-13.999-16.538
	c-0.837-0.782-0.831-2.443-1.268-3.679c-0.292-0.827-0.455-1.628-1.363-2.234c-2.918-1.95-3.021-3.333-0.528-5.948
	C108.063,230.225,109.156,228.723,107.638,226.34"/>
<path fill="#FFFFFF" d="M175.457,127.323c3.084,2.329,4.666,5.172,4.252,8.974c-0.374,3.43,0.402,6.636,2.569,9.298
	c1.89,2.324,2.196,4.925,1.828,7.63c-0.421,3.107,1.184,4.877,3.729,5.689c3.423,1.094,4.787,3.367,4.541,6.674
	c-0.256,3.445,1.373,5.686,4.152,7.256c2.446,1.381,3.457,3.865,4.552,6.104c1.783,3.648,4.869,5.375,8.329,6.711
	c3.486,1.346,6.3,4.051,10.153,4.738c-5.073-0.011-10.041,0.987-15.007-0.215c-2.967-0.719-6.198,2.126-6.422,5.359
	c-0.372,5.372-0.372,5.372-5.587,5.372c-3.176,0-6.351-0.005-9.527,0.003c-0.739,0.001-1.512-0.091-2.21,0.089
	c-4.294,1.107-5.378,0.539-6.83-3.986c-0.952-2.969-2.497-5.422-5.357-6.848c-2.035-1.014-4.131-1.734-5.394,1.027
	c-0.676,1.479-1.373,0.868-2.186,0.285c-2.187-1.57-4.763-1.881-7.117-1.102c-1.655,0.549-2.741,0.063-3.592-0.818
	c-2.258-2.341-4.992-3.022-7.786-1.888c-2.401,0.976-3.625,0.095-4.741-1.655c-1.542-2.416-2.993-4.89-4.499-7.328
	c-0.613-0.991-0.953-1.717,0.614-2.253c2.036-0.697,2.792-2.347,3.309-4.453c0.526-2.136,1.754-4.139,2.893-6.071
	c0.869-1.473,2.344-1.393,3.888-0.965c4,1.11,4.975,0.577,6.673-3.255c0.983-2.222,2.751-3.56,5.125-3.938
	c1.98-0.316,2.823-1.105,3.792-3.175c1.687-3.606,1.921-7.786,5.041-10.962c2.316-2.358,3.617-5.832,2.401-9.594
	c-0.702-2.174,1.78-2.243,2.496-2.181C172.998,132.146,174.568,130.289,175.457,127.323"/>
<path fill="#FFFFFF" d="M105.971,222.488c0.712-2.112,1.187-3.993,1.973-5.733c1.016-2.248,0.627-4.111-0.731-6.084
	c-3.059-4.445-1.411-10.619,3.372-12.935c1.273-0.615,1.858-1.657,2.535-2.833c1.756-3.049,2.972-6.609,6.028-8.632
	c2.623-1.737,5.623-2.896,8.391-4.427c1.456-0.807,2.062-0.49,2.773,1.006c1.05,2.209,2.441,4.262,3.756,6.337
	c1.946,3.072,5.049,4.286,8.655,3.202c1.53-0.461,2.665-0.445,4.021,0.552c1.477,1.085,3.182,1.847,5.206,1.653
	c2.935-0.279,5.67,0.057,8.312,1.842c2.669,1.806,5.155,0.627,6.9-1.675c2.483,2.165,2.317,5.646,4.281,8.052
	c0.593,0.726,1.12,1.544,1.837,2.123c3.381,2.731,3.338,5.66,0.265,8.688c-5.667,5.585-13.138,7.385-20.163,10.219
	c-3.199,1.291-6.96,1.506-9.26,4.916c-0.962,1.424-1.189,2.667-1.311,4.176c-0.061,0.742,0.556,1.77-0.547,2.2
	c-0.989,0.386-1.443-0.607-2.149-0.988c-1.453-0.783-1.719-2.512-2.819-3.444c-4.254-3.61-8.723-7.162-14.111-8.695
	C117.672,220.438,111.915,220.664,105.971,222.488"/>
<path fill="#B0D3E5" d="M526.083,221.924c0.033,1.416-0.276,2.551-1.7,3.326c-2.483,1.353-2.846,4.974-6.184,5.615
	c-3.046,0.586-5.745,2.518-9.151,1.877c-2.035-0.384-4.271-0.446-5.939,1.509c-0.472,0.553-1.552,1.017-2.235,0.889
	c-4.47-0.833-9.041-0.104-13.472-0.878c-3.427-0.6-6.025,0.316-8.527,2.614c-1.827,1.678-3.664,3.127-4.599,5.617
	c-0.26,0.691-1.157,1.988-2.549,2.394c-3.573,1.041-6.494,3.079-8.455,6.368c-0.854,1.431-2.39,1.435-3.657,0.919
	c-3.543-1.442-6.96-0.31-9.961,1.028c-4.592,2.048-9.265,3.48-14.184,4.215c-4.715,0.704-9.444,1.313-14.175,1.899
	c-1.729,0.214-3.264-0.185-4.505-1.624c-1.2-1.392-2.95-2.244-4.443-0.826c-2.019,1.918-4.479,2.451-6.958,3.057
	c-2.809,0.688-5.046,1.958-5.413,5.087c-0.402,3.42-3.653,3.441-5.661,4.295c-3.912,1.664-7.575,3.055-8.418,7.848
	c-0.237,1.35-1.674,1.75-2.584,2.503c-3.074,2.536-9.886,3.105-12.468,1.265c-1.009-0.719-1.782-1.752-1.576-2.814
	c0.194-1.003,1.583-1.573,2.521-1.536c3.006,0.118,5.169-1.898,7.774-2.755c1.32-0.435,1.375-2.034,1.461-2.928
	c0.314-3.27,2.741-4.305,5.132-5.11c1.956-0.66,3.836-1.446,5.735-2.223c1.499-0.612,2.291-1.714,2.609-3.204
	c0.664-3.109,2.463-4.555,5.719-4.942c1.965-0.234,4.538-0.039,5.712-2.4c0.485-0.977,0.934-0.193,1.128-0.018
	c4.621,4.189,9.894,1.569,14.762,1.099c6.229-0.603,12.449-1.78,18.483-3.635c0.396-0.121,0.887-0.076,1.198-0.298
	c3.676-2.618,7.753-3.071,12.05-2.237c2.739,0.531,4.406-0.996,5.727-2.983c1.188-1.788,2.413-3.066,4.743-3.588
	c2.276-0.51,4.286-1.992,5.33-4.417c1.375-3.196,4.208-5.169,7.071-6.61c1.482-0.747,3.736-0.972,5.795-0.313
	c1.348,0.431,2.94,0.056,4.419,0.134c2.181,0.115,4.383-0.357,6.548,0.536c0.792,0.327,2.232,0.357,2.751-0.136
	c2.79-2.647,6.216-1.237,9.249-1.895c4.143-0.898,9.099-1.115,11.487-5.858c1.592-3.162,5.174-2.719,7.8-3.893
	C525.741,218.329,526.044,220.581,526.083,221.924"/>
<path fill="#B0D3E5" d="M520.569,216.031c-0.831-2.328,0.979-5.172-1.718-7.014c-0.466-0.317,0.376-0.781,0.615-1.18
	c2.446-4.043,6.319-6.689,9.79-9.661c3.099-2.655,4.011-5.855,3.773-9.594c-0.094-1.469-0.421-2.754,1.413-3.407
	c0.489-0.176,1.078-0.923,1.099-1.428c0.206-5.205,4.548-7.929,7.173-11.585c1.563-2.176,5.046-2.013,7.645-2.947
	c5.382-1.934,6.706-4.228,5.165-9.721c-0.237-0.846-0.314-1.599,0.118-2.407c3.489-6.513,5.239-13.677,7.826-20.374
	c0.277,1.703-0.082,3.705,0.717,5.588c0.403,0.95,1.055,2.03,1.815,1.971c3.034-0.235,1.774,1.825,1.292,2.679
	c-2.215,3.92-2.637,8.511-4.549,12.397c-1.621,3.292-1.852,6.425-1.65,9.738c0.192,3.164-2.153,3.594-4.14,4.496
	c-2.259,1.025-5,0.07-7.165,1.867c-0.789,0.656-1.528,1.213-2.158,2.073c-1.838,2.512-3.791,4.949-5.828,7.304
	c-0.742,0.857-1.239,1.631-1.122,2.781c0.052,0.508,0.075,1.388-0.167,1.502c-3.715,1.735-2.142,5.065-2.292,7.771
	c-0.093,1.684-0.54,2.898-1.677,4.162C531.684,206.443,528.005,213.056,520.569,216.031"/>
<path fill="#B0D3E5" d="M362.719,277.119c-1.388,0-2.412,0.058-3.428-0.013c-1.509-0.104-2.681,0.11-3.624,1.592
	c-1.384,2.172-3.304,2.319-5.961,1.916c-3.877-0.589-7.9-0.211-11.846-0.905c-2.55-0.448-5.191,0.27-7.794-0.603
	c-1.615-0.541-3.309,0.032-4.607,1.3c-0.907,0.886-1.736,1.859-2.704,2.672c-2.294,1.922-4.336,3.395-7.995,2.515
	c-4.647-1.12-9.517-0.286-13.757,2.581c-2.121,1.435-7.803-0.909-8.1-3.231c-0.137-1.07,1.044-1.19,1.479-1.244
	c2.463-0.303,4.469-1.609,6.529-2.754c2.521-1.4,4.847,0.048,7.197,0.389c3.311,0.479,6.309-0.007,8.566-2.402
	c4.515-4.787,9.451-6.367,15.564-3.158c1.228,0.645,2.732,0.878,4.246,0.738c2.637-0.245,5.291-0.395,7.935-0.025
	c2.375,0.332,4.148-0.465,5.777-2.305c2.235-2.521,8.456-2.104,10.646,0.491C361.421,275.359,361.939,276.098,362.719,277.119"/>
<path fill="#B0D3E5" d="M184.214,301.418c-0.081-0.621-0.004-1.319-0.267-1.852c-2.925-5.936,0.581-10.458,3.282-15.158
	c0.19-0.33,0.561-0.895,0.722-0.854c3.597,0.909,4.203-1.979,5.786-4.076c2.108-2.791,4.643-5.436,8.595-5.724
	c0.454-0.032,0.814-0.651,1.399-0.196c1.673,1.302-0.139,3.781,1.78,5.151c0.353,0.252-1.228,0.817-1.808,1.375
	c-0.074,0.071-0.168,0.127-0.26,0.175c-2.743,1.439-3.529,4.998-5.588,6.318c-2.181,1.398-5.243,1.833-6.712,4.304
	c-2.537,4.269-3.741,8.986-2.903,13.959c0.171,1.012,0.039,2.113,0.45,3.034c0.684,1.54-0.94,1.422-1.413,1.803
	c-0.772,0.619-0.951-0.423-1.238-1.078c-1.536-3.498-2.407-3.859-5.392-1.544c-3.641,2.823-6.918,2.26-9.311,0.577
	c-1.921-1.352-1.208-2.368,0.079-3.463c0.545-0.464,1.306-0.701,1.776-1.217c1.358-1.491,2.206-1.298,2.824,0.605
	c0.891,2.746,3.187,2.475,5.174,1.965C183.059,305.04,184.672,303.875,184.214,301.418"/>
<path fill="#B0D3E5" d="M209.841,277.492c3.51-0.814,7.013,0.266,10.343-0.974c0.745-0.277,1.228,0.171,1.655,0.969
	c1.696,3.177,4.787,3.319,7.689,2.727c5.901-1.205,11.865-2.298,16.792-6.339c1.692-1.388,4.026-2,6.077-2.942
	c0.754-0.347,1.315-0.014,1.991,0.436c1.578,1.049,3.016,2.197,4.322,3.96c-5.328,2.017-9.707,5.558-14.659,7.756
	c-2.74,1.216-6.459,0.99-9.713,1.62c-1.311,0.254-1.883-1.099-2.443-1.875c-1.051-1.46-2.361-1.979-4.003-1.886
	c-4.19,0.236-8.475-0.514-12.54,0.941c-1.159,0.416-1.217,0.042-1.352-0.827C213.647,278.782,212.77,277.034,209.841,277.492"/>
<path fill="#B0D3E5" d="M571.07,133.351c-0.428-0.418-0.696-0.92-0.994-0.938c-3.969-0.233-3.661-3.489-3.859-5.929
	c-0.227-2.794,1.894-4.593,4.017-6.104c1.336-0.952,2.701-1.904,4.168-2.622c1.377-0.675,1.472-1.728,1.113-2.86
	c-0.275-0.87-1.241-1.949,0.31-2.125c1.023-0.116,2.322-1.015,3.412,0.497c2.218,3.077,2.069,9.094-0.518,10.106
	c-2.246,0.879-4.228,1.808-5.605,4.067C571.496,130.094,571.26,129.95,571.07,133.351"/>
<path fill="#FFFFFF" d="M588.919,81.611c-1.678-0.74-2.479-1.766-2.58-2.961c-0.112,0.006-0.223,0.017-0.339,0.017
	c-0.27,0-0.523-0.023-0.77-0.057c-0.054,1.615-0.571,2.934-3.445,3.026c-0.147,0.005-0.33,0.672-0.401,1.049
	c-0.661,3.521,1.275,8.337,4.346,9.716c1.715,0.769,4.093,2.118,5.67,0.655C593.811,90.819,592.092,83.011,588.919,81.611z"/>
<path fill="#B1D3E5" d="M559.253,103.723c0.959-4.508-3.813-3.124-5.152-5.507c1.647-0.235,3.269-0.1,4.411-1.215
	c1.243-1.213,0.532-2.808,0.577-4.216c0.065-2.012,1.505-3.575,1.513-5.677c0.004-0.933,1.896-0.673,2.771-0.295
	c2.959,1.28,3.823,6.467,1.542,8.943c-1.029,1.117-0.895,2.326-0.402,3.502c0.666,1.593,0.207,2.597-1.454,2.526
	C561.463,101.715,560.504,102.501,559.253,103.723"/>
<path fill="#B0D3E5" d="M268.155,279.865c3.008-2.408,6.588-3.774,9.951-5.53c2.345-1.225,3.157,0.801,4.076,2.089
	c1.011,1.418,0.845,2.867-0.985,3.772c-1.827,0.902-3.562,1.999-5.417,2.83C273.106,284.224,271.187,283.373,268.155,279.865"/>
<path fill="#AFD3E5" d="M590.518,98.159c6.198,0.889,4.944-4.937,7.241-7.553c1.387,1.465,1.114,3.914-0.923,7.591
	C595.986,99.731,595.843,99.733,590.518,98.159"/>
<path fill="none" d="M50,0v357h595.276V0H50z M101.488,225.662c-0.56,2.45-3.155,3.921-5.546,3.592
	c-2.157,1.832-5.742,2.092-7.592-1.063c-2.042-3.48-3.66-7.239-4.504-11.194c-0.568-2.663,0.751-5.396,3.492-6.15
	c1.974-0.543,4.291,0.283,5.469,1.957c1.979-4.138,9.529-3.408,9.527,2.197C102.332,218.573,102.289,222.16,101.488,225.662z
	 M138.663,281.821c-2.751,0.757-5.196-0.901-6.126-3.432c-0.089-0.172-0.183-0.34-0.283-0.504c-0.082-0.13-0.271-0.378-0.398-0.546
	c-0.448-0.505-0.914-0.992-1.392-1.472c-1.925-1.927-1.927-5.144,0-7.07c1.926-1.926,5.146-1.928,7.071,0
	c2.028,2.029,3.649,4.146,4.619,6.873C143.069,278.24,141.145,281.139,138.663,281.821z M182,332
	c-8.754,0.709-17.918-2.457-22.317-10.477c-3.103-5.656,5.533-10.701,8.635-5.047c1.124,2.049,2.732,3.408,4.596,4.28
	c1.006-0.634,2.277-0.913,3.749-0.578c2.765,0.628,5.366,1.064,7.861,2.504C189.092,325.317,186.747,331.615,182,332z
	 M518.984,57.523c-1.416,2.418-4.436,3.076-6.841,1.794c-3.084-1.644-4.428-4.973-4.477-8.317c-0.04-2.726,2.305-5,5-5
	c2.756,0,4.96,2.275,5,5c0,0.004,0.001,0.008,0.001,0.013C519.668,52.455,520.224,55.408,518.984,57.523z M558,80
	c-6.448,0-6.448-10,0-10S564.448,80,558,80z M575.333,148c-6.448,0-6.448-10,0-10S581.781,148,575.333,148z M586,78.667
	c-6.448,0-6.448-10,0-10S592.448,78.667,586,78.667z"/>
</svg>
